<?xml version="1.0" encoding="utf-8"?>
<!-- Generator: Adobe Illustrator 24.0.2, SVG Export Plug-In . SVG Version: 6.00 Build 0)  -->
<svg version="1.1" id="Layer_1" xmlns="http://www.w3.org/2000/svg" xmlns:xlink="http://www.w3.org/1999/xlink" x="0px" y="0px"
	 width="202.5px" height="35.8px" viewBox="0 0 202.5 35.8" enable-background="new 0 0 202.5 35.8" xml:space="preserve">
<g>
	<rect x="7" y="10.2" fill="none" width="202.5" height="32.5"/>
	<path d="M11,16.8h-0.1l0.1,7.2H8.2V11h2.7l3.6,7.2h0.1L14.5,11h2.8v13h-2.5L11,16.8z"/>
	<path d="M22.1,24l0.2-3.5h3.9L26,24H22.1z"/>
	<path d="M37.2,20.3c0-1.8-5.6-2.5-5.6-5.5c0-2.1,2.4-4.2,7.9-4l0.2,2.7c-3.9-0.3-4.8,0-4.8,0.8c0,1.6,5.6,2.5,5.6,5.6
		c0,2.1-2.2,4.3-8.8,4.2v-2.7C35.8,21.7,37.2,21.3,37.2,20.3z"/>
	<path d="M49,22.9c-0.8,0.8-1.8,1.4-3.2,1.4c-1.9,0-3.1-1-3.1-2.8c0-2.1,1.8-3.8,6.1-3.8c-0.1-1.6-1.2-2-5.5-2.1l0.3-2.5
		c6.7,0,8.2,1.4,8.2,5.6c0,1.9,0.1,3.8,0.2,5.2l-2.7,0.1L49,22.9z M48.9,21.5c0-0.5,0-1.1-0.1-1.8c-2.7-0.3-3.2,0.3-3.2,1.2
		c0,0.8,0.5,1.2,1.4,1.2C47.6,22,48.3,21.8,48.9,21.5z"/>
	<path d="M54.6,23.7V9.3l3-0.3v5.1c0.7-0.6,1.5-1,2.5-1c2.2,0,3.8,2,3.8,5c0,3.9-2.8,6.2-6,6.2C56.6,24.3,55.6,24.1,54.6,23.7z
		 M60.9,18.8c0-2.3-0.8-3.3-2.1-3.3c-0.4,0-0.9,0.1-1.3,0.4v5.6c0.4,0.1,0.9,0.2,1.4,0.2C60.3,21.7,60.9,20.9,60.9,18.8z"/>
	<path d="M65.6,19c0-3.5,2.4-5.9,5.4-5.9c2.7,0,4.5,1.9,4.5,5.4c0,3.6-2.4,5.9-5.4,5.9C67.4,24.3,65.6,22.5,65.6,19z M72.4,18.9
		c0-2.4-0.7-3.5-2-3.5c-1.1,0-1.8,0.9-1.8,3c0,2.4,0.7,3.5,2,3.5C71.7,21.9,72.4,21,72.4,18.9z"/>
	<path d="M97.9,13L92,17.6v0.3l5.9,4.6l-1.7,2.1L89.3,19v-2.5l7-5.6L97.9,13z"/>
	<path d="M100.9,24V11c6.7-0.9,9.1,1.2,9.1,6.3C110,22.3,107.2,24.9,100.9,24z M103.3,12.8v9.3c3.2,0.5,4.3-1,4.3-4.5
		C107.6,14.1,106.5,12.5,103.3,12.8z"/>
	<path d="M112.1,19c0-3.2,2.4-5.7,5.1-5.7c2.9,0,4.3,2.3,4,5.9l-6.7,0.2c0.3,2.1,1.8,2.8,6.4,2.9l-0.2,2
		C113.9,24.3,112.1,22.4,112.1,19z M114.4,18c1.1,0,3.2-0.1,4.5-0.1c-0.1-1.7-0.7-2.7-2.2-2.7C115.3,15.2,114.5,16.1,114.4,18z"/>
	<path d="M130.9,13.6h2.4c-1.1,3.5-2.4,7.1-3.7,10.5h-2.8c-1.3-3.5-2.5-7-3.6-10.4l2.3-0.2c0.8,2.7,1.7,5.5,2.7,8.3h0.1
		C129.3,19,130.2,16.2,130.9,13.6z"/>
	<path d="M135.7,22.9l6.1-5v-0.2l-6.1-4.9l1.3-1.7l6.9,5.7v2l-7,5.7L135.7,22.9z"/>
	<path d="M147.9,24.2l0-2c4.1,0.3,5.2-0.1,5.2-1c0-0.9-1.3-2.1-2.3-3.4c-0.9,0.7-2.1,1.4-3.5,2.2l-0.5-1c1.5-1,2.6-1.7,3.3-2.4
		c-0.2-0.4-0.3-0.8-0.3-1.2c0-1.4,1.4-2.5,2.7-2.5c1.5,0,2,1.3,0.1,3.4c0.8,1.4,2.8,3.1,2.8,4.8C155.5,22.7,153.8,24.4,147.9,24.2z"
		/>
	<path d="M160.7,20.9l1.5-5.5l-3.5,0.3l-0.1-1.2l4.4-1h1.9l-1.8,7c-0.5,1.8-0.1,2.1,4,1.3l0.2,1.2C161.6,25.3,159.8,24.2,160.7,20.9
		z M162.9,12l0.7-2.9l2.6-0.1l-0.9,2.9L162.9,12z"/>
	<path d="M169.4,27.6l0.2-2.2c3.7,0.3,5.6,0,6-0.4c0.4-0.4,0.1-1.8,0-3.5c-1,1.1-2.3,1.9-3.5,1.9c-1.4,0-2.5-1-2.5-3.2
		c0-3.4,2.5-6.9,6-6.9c0.7,0,1.4,0.1,2,0.4c0.2-0.3,0.5-0.5,0.7-0.5c0.5,0,1.4,0.4,1.4,0.8c0,0.9-1,3.4-2.2,5.6c0,0.2,0,0.4,0,0.6
		c0,2.6,0.6,4.1,0,5.3C176.8,26.9,174.4,27.8,169.4,27.6z M175.7,19.9c0.1-1.4,0.5-3,1-4.2c-0.8-0.4-1.4-0.6-1.9-0.6
		c-1.7,0-2.9,2.4-2.9,4.4c0,1.3,0.6,1.8,1.4,1.8C174,21.4,174.9,20.9,175.7,19.9z"/>
	<path d="M186.9,22.8c0-1.6,1.3-4.8,1.3-6.4c0-0.7-0.3-1-0.9-1c-0.7,0-1.7,0.5-2.8,1.6c-0.3,1.3-1.3,6.2-1.4,7h-2.2
		c1-5,1.4-7.3,1.9-10.4l2.2-0.1c0,0.2-0.2,1.1-0.3,1.9c1.4-1.4,2.7-2.1,4-2.1c1.4,0,1.9,0.9,1.9,2.1c0,2.1-1.3,5.5-1.3,6.5
		c0,0.5,0.2,0.6,1.6,0.1l0.2,1.1C188.2,24.8,186.9,24.4,186.9,22.8z"/>
</g>
<g>
</g>
<g>
</g>
<g>
</g>
<g>
</g>
<g>
</g>
<g>
</g>
</svg>
